<svg xmlns="http://www.w3.org/2000/svg" viewBox="0 0 900 520" role="img" aria-labelledby="title desc">
  <title id="title">Professional home cleaning offer</title>
  <desc id="desc">A local illustration for The Wings Group cleaning service offer.</desc>
  <defs>
    <linearGradient id="bg" x1="0" x2="1" y1="0" y2="1">
      <stop offset="0" stop-color="#ffffff"/>
      <stop offset="1" stop-color="#eaf7ff"/>
    </linearGradient>
    <linearGradient id="accent" x1="0" x2="1">
      <stop offset="0" stop-color="#5536d9"/>
      <stop offset="1" stop-color="#159b83"/>
    </linearGradient>
  </defs>
  <rect width="900" height="520" rx="46" fill="url(#bg)"/>
  <rect x="58" y="72" width="360" height="342" rx="28" fill="#fff" stroke="#dce6ef" stroke-width="8"/>
  <path d="M105 372h255" stroke="#d4e1eb" stroke-width="16" stroke-linecap="round"/>
  <path d="M140 324h178" stroke="#5536d9" stroke-width="16" stroke-linecap="round"/>
  <path d="M145 152h95c54 0 98 44 98 98v52" fill="none" stroke="#1f2937" stroke-width="20" stroke-linecap="round"/>
  <path d="M149 152c0 70 57 127 127 127" fill="none" stroke="#159b83" stroke-width="20" stroke-linecap="round"/>
  <circle cx="168" cy="151" r="24" fill="#5536d9"/>
  <path d="M540 386l72-224 116 224z" fill="#c6f1e8"/>
  <path d="M614 161h112l60 226H552z" fill="#fff" stroke="#d5e2ec" stroke-width="8"/>
  <path d="M609 384h180" stroke="#159b83" stroke-width="22" stroke-linecap="round"/>
  <path d="M654 199h62M640 238h92M632 277h108" stroke="#5536d9" stroke-width="14" stroke-linecap="round"/>
  <circle cx="736" cy="132" r="46" fill="url(#accent)"/>
  <path d="M716 133l14 14 28-33" fill="none" stroke="#fff" stroke-width="12" stroke-linecap="round" stroke-linejoin="round"/>
  <path d="M477 431c76-32 139-31 212 0" stroke="#d8e4ec" stroke-width="18" stroke-linecap="round"/>
</svg>
